<?xml version="1.0" encoding="UTF-8" standalone="no"?>
<!DOCTYPE svg PUBLIC "-//W3C//DTD SVG 1.1//EN" "http://www.w3.org/Graphics/SVG/1.1/DTD/svg11.dtd">
<svg width="100%" height="100%" viewBox="0 0 516 34" version="1.1" xmlns="http://www.w3.org/2000/svg" xmlns:xlink="http://www.w3.org/1999/xlink" xml:space="preserve" xmlns:serif="http://www.serif.com/" style="fill-rule:evenodd;clip-rule:evenodd;stroke-linejoin:round;stroke-miterlimit:1.41421;">
    <g id="Logo" transform="matrix(1,0,0,1.01507,-541.166,-1683.87)">
        <rect x="537.547" y="1651.5" width="600" height="48.449" style="fill:none;"/>
        <g transform="matrix(1,3.02537e-17,-6.7147e-18,0.985158,-600.453,-613.806)">
            <g>
                <text x="1137.38px" y="2341.13px" style="font-family:'Montserrat-Medium', 'Montserrat';font-weight:500;font-size:36px;fill:white;">DES<tspan x="1213.23px " y="2341.13px ">T</tspan>INA<tspan x="1299.84px " y="2341.13px ">T</tspan>IO</text>
                <text x="1362.38px" y="2341.13px" style="font-family:'Montserrat-Medium', 'Montserrat';font-weight:500;font-size:36px;fill:white;">N</text>
                <text x="1430.34px" y="2341.13px" style="font-family:'Montserrat-Medium', 'Montserrat';font-weight:500;font-size:36px;fill:white;">ANY<tspan x="1508.46px 1548.46px " y="2341.13px 2341.13px ">WH</tspan>ERE</text>
            </g>
        </g>
        <g transform="matrix(0.065104,0,7.70372e-34,0.065104,798.13,1658.51)">
            <path d="M298.028,214.267L285.793,96L328,96C341.255,96 352,85.255 352,72L352,24C352,10.745 341.255,0 328,0L56,0C42.745,0 32,10.745 32,24L32,72C32,85.255 42.745,96 56,96L98.207,96L85.972,214.267C37.465,236.82 0,277.261 0,328C0,341.255 10.745,352 24,352L160,352L160,456.007C160,457.249 160.289,458.474 160.845,459.585L184.845,507.585C187.786,513.467 196.209,513.478 199.156,507.585L223.156,459.585C223.711,458.474 224.001,457.249 224.001,456.007L224.001,352L360.001,352C373.256,352 384.001,341.255 384.001,328C384,276.817 346.018,236.58 298.028,214.267Z" style="fill:rgb(204,51,51);fill-rule:nonzero;"/>
        </g>
    </g>
</svg>
